<svg height="512pt" viewBox="0 0 512 512" width="512pt" xmlns="http://www.w3.org/2000/svg"><path d="m512 256c0 141.386719-114.613281 256-256 256s-256-114.613281-256-256 114.613281-256 256-256 256 114.613281 256 256zm0 0" fill="#5dc1d8"/><path d="m69.386719 28h373.226562v276.78125h-373.226562zm0 0" fill="#2e4c89"/><path d="m354.746094 77.789062c1.453125-5.882812-3.890625-11.191406-9.761719-9.699218l-4.210937 1.066406c-8.542969 2.167969-17.453126 2.414062-26.101563.738281-13.175781-2.554687-30.832031-5.09375-58.671875-5.09375s-45.496094 2.539063-58.671875 5.09375c-8.648437 1.675781-17.5625 1.429688-26.101563-.738281l-4.210937-1.066406c-5.871094-1.488282-11.214844 3.816406-9.761719 9.699218 2.351563 9.519532 2.390625 19.484376-.042968 28.984376-1.765626 6.886718-3.164063 15.664062-3.164063 29.683593s1.398437 22.796875 3.164063 29.6875c2.433593 9.5 2.394531 19.460938.042968 28.984375-1.453125 5.878906 3.890625 11.1875 9.761719 9.699219l4.210937-1.070313c8.542969-2.164062 17.453126-2.414062 26.101563-.738281 13.175781 2.554688 30.832031 5.097657 58.671875 5.097657 37.867188 0 56.894531-4.703126 71.429688-7.742188 0 0 9.242187 2.34375 17.554687 4.453125 5.871094 1.488281 11.214844-3.820313 9.761719-9.699219-2.351563-9.523437-2.390625-19.484375.042968-28.984375 1.765626-6.890625 3.164063-15.667969 3.164063-29.6875s-1.398437-22.796875-3.164063-29.683593c-2.433593-9.5-2.394531-19.464844-.042968-28.984376zm0 0" fill="#d9eafc"/><path d="m201.667969 136.457031c0-25.875 10.335937-71.65625 54.332031-71.65625-27.839844 0-45.496094 2.539063-58.671875 5.09375-8.648437 1.675781-17.558594 1.429688-26.101563-.738281l-4.210937-1.066406c-5.871094-1.488282-11.214844 3.816406-9.761719 9.699218 2.351563 9.519532 2.390625 19.484376-.042968 28.984376-1.765626 6.886718-3.164063 15.664062-3.164063 29.683593s1.398437 22.796875 3.164063 29.6875c2.433593 9.5 2.394531 19.460938.042968 28.984375-1.453125 5.878906 3.890625 11.1875 9.761719 9.699219l4.210937-1.070313c8.542969-2.164062 17.453126-2.414062 26.101563-.738281 13.175781 2.554688 30.832031 5.097657 58.671875 5.097657-36.335938 0-54.332031-45.785157-54.332031-71.660157zm0 0" fill="#c3ddf4"/><path d="m70.871094 0c8.386718 0 15.183594 6.796875 15.183594 15.183594v289.597656h-30.367188v-289.597656c0-8.386719 6.796875-15.183594 15.183594-15.183594zm0 0" fill="#445ea0"/><path d="m441.128906 0c8.386719 0 15.183594 6.796875 15.183594 15.183594v289.597656h-30.367188v-289.597656c0-8.386719 6.796876-15.183594 15.183594-15.183594zm0 0" fill="#445ea0"/><path d="m456.3125 203h-400.625l-9.410156 30.40625c-2.171875 7.023438-3.277344 14.332031-3.277344 21.683594v76.691406h426v-76.691406c0-7.351563-1.105469-14.660156-3.277344-21.683594zm0 0" fill="#c3ddf4"/><path d="m96.277344 233.40625 9.410156-30.40625h-50l-9.410156 30.40625c-2.171875 7.023438-3.277344 14.332031-3.277344 21.683594v76.691406h50v-76.691406c0-7.351563 1.105469-14.660156 3.277344-21.683594zm0 0" fill="#aec1ed"/><path d="m157.253906 195.128906c-1.453125 5.878906 3.890625 11.1875 9.761719 9.699219l4.210937-1.070313c8.542969-2.164062 17.453126-2.414062 26.101563-.738281 13.175781 2.554688 30.832031 5.097657 58.671875 5.097657 37.867188 0 56.894531-4.703126 71.429688-7.742188 0 0 9.242187 2.34375 17.554687 4.453125 5.871094 1.488281 11.214844-3.820313 9.761719-9.699219-2.351563-9.523437-2.390625-19.484375.042968-28.984375 1.078126-4.203125 2.015626-9.113281 2.585938-15.480469h-202.75c.570312 6.367188 1.507812 11.277344 2.585938 15.480469 2.433593 9.5 2.394531 19.460938.042968 28.984375zm0 0" fill="#c3ddf4"/><path d="m456.3125 203h-400.625v-14.96875c0-12.351562 10.011719-22.367188 22.363281-22.367188h355.898438c12.351562 0 22.363281 10.015626 22.363281 22.367188zm0 0" fill="#fff"/><path d="m128.050781 165.667969h-50c-12.351562 0-22.363281 10.011719-22.363281 22.363281v14.96875h50v-14.96875c0-12.351562 10.011719-22.363281 22.363281-22.363281zm0 0" fill="#d9eafc"/><path d="m467.984375 243c-.542969-3.238281-1.289063-6.445312-2.261719-9.59375l-9.410156-30.40625h-400.625l-9.410156 30.40625c-.972656 3.148438-1.71875 6.355469-2.261719 9.59375zm0 0" fill="#d9eafc"/><path d="m105.6875 203h-50l-9.410156 30.40625c-.972656 3.148438-1.71875 6.355469-2.261719 9.59375h50c.542969-3.238281 1.289063-6.445312 2.261719-9.59375zm0 0" fill="#c3ddf4"/><path d="m469 398.035156v-61.90625h-426v61.90625c15.585938 23.324219 34.898438 43.9375 57.085938 61.003906v-4.738281c0-16.546875 13.414062-29.957031 29.957031-29.957031h251.914062c16.546875 0 29.957031 13.410156 29.957031 29.957031v4.734375c22.1875-17.0625 41.5-37.675781 57.085938-61zm0 0" fill="#293d7c"/><path d="m41.878906 396.332031h428.242188c9.175781-13.96875 17.019531-28.890625 23.355468-44.582031v-38.335938c0-6.234374-5.054687-11.285156-11.289062-11.285156h-452.375c-6.234375 0-11.285156 5.050782-11.285156 11.285156v38.335938c6.332031 15.695312 14.175781 30.613281 23.351562 44.582031zm0 0" fill="#445ea0"/><path d="m18.527344 313.414062v38.335938c6.332031 15.695312 14.175781 30.613281 23.351562 44.582031h26.648438v-94.203125h-38.714844c-6.234375 0-11.285156 5.050782-11.285156 11.285156zm0 0" fill="#2e4c89"/></svg>