<svg height="512pt" viewBox="0 0 512 512" width="512pt" xmlns="http://www.w3.org/2000/svg"><path d="m512 256c0 141.386719-114.613281 256-256 256s-256-114.613281-256-256 114.613281-256 256-256 256 114.613281 256 256zm0 0" fill="#ffaf10"/><path d="m436.472656 256c0 99.671875-80.800781 180.472656-180.472656 180.472656s-180.472656-80.800781-180.472656-180.472656 80.800781-180.472656 180.472656-180.472656 180.472656 80.800781 180.472656 180.472656zm0 0" fill="#ffd00d"/><path d="m336.871094 198.515625v-65.515625h-161.742188v65.515625c0 6.078125-3.101562 11.703125-8.183594 15.039063-44.234374 29.035156-73.445312 79.078124-73.445312 135.945312 0 89.773438 72.15625 162.191406 161.929688 162.5 90.007812.308594 163.070312-72.5625 163.070312-162.5 0-56.871094-29.21875-106.921875-73.460938-135.957031-5.074218-3.328125-8.167968-8.957031-8.167968-15.027344zm0 0" fill="#fff"/><path d="m143.5 349.5c0-56.867188 29.210938-106.910156 73.445312-135.945312 5.078126-3.335938 8.183594-8.960938 8.183594-15.039063v-65.515625h-50v65.515625c0 6.078125-3.105468 11.703125-8.183594 15.039063-44.234374 29.035156-73.445312 79.078124-73.445312 135.945312 0 89.773438 72.15625 162.191406 161.929688 162.5 8.675781.027344 17.195312-.628906 25.507812-1.910156-78.050781-11.992188-137.4375-79.148438-137.4375-160.589844zm0 0" fill="#d9eafc"/><path d="m309.996094 337.835938c-16.578125 0-30.066406-13.488282-30.066406-30.066407v-15.066406h-47.859376v15.066406c0 16.578125-13.484374 30.066407-30.0625 30.066407-16.578124 0-30.066406-13.488282-30.066406-30.066407s13.488282-30.066406 30.066406-30.066406h15.0625v-144.703125c0-4.140625 3.359376-7.5 7.5-7.5 4.144532 0 7.5 3.359375 7.5 7.5v144.703125h47.859376v-144.703125c0-4.140625 3.359374-7.5 7.5-7.5 4.144531 0 7.5 3.359375 7.5 7.5v144.703125h15.066406c16.578125 0 30.066406 13.488281 30.066406 30.066406s-13.488281 30.066407-30.066406 30.066407zm-15.066406-45.132813v15.066406c0 8.308594 6.757812 15.066407 15.066406 15.066407 8.304687 0 15.0625-6.757813 15.0625-15.066407 0-8.304687-6.757813-15.066406-15.0625-15.066406zm-92.925782 0c-8.308594 0-15.066406 6.761719-15.066406 15.066406 0 8.308594 6.757812 15.066407 15.066406 15.066407s15.066406-6.757813 15.066406-15.066407v-15.066406zm0 0" fill="#c3ddf4"/><path d="m173.09375 110.90625h165.8125c12.199219 0 22.09375 9.890625 22.09375 22.09375s-9.894531 22.09375-22.09375 22.09375h-165.8125c-12.203125 0-22.09375-9.890625-22.09375-22.09375s9.890625-22.09375 22.09375-22.09375zm0 0" fill="#293d7c"/><path d="m211 133c0-12.203125 9.890625-22.09375 22.09375-22.09375h-60c-12.203125 0-22.09375 9.890625-22.09375 22.09375s9.890625 22.09375 22.09375 22.09375h60c-12.203125 0-22.09375-9.890625-22.09375-22.09375zm0 0" fill="#1a2b63"/><path d="m173.09375 66.71875h165.8125c12.199219 0 22.09375 9.890625 22.09375 22.09375 0 12.199219-9.894531 22.09375-22.09375 22.09375h-165.8125c-12.203125 0-22.09375-9.894531-22.09375-22.09375 0-12.203125 9.890625-22.09375 22.09375-22.09375zm0 0" fill="#2e4c89"/><path d="m211 88.8125c0-12.203125 9.890625-22.097656 22.09375-22.097656h-60c-12.203125 0-22.09375 9.894531-22.09375 22.09375 0 12.203125 9.890625 22.09375 22.09375 22.09375h60c-12.203125.003906-22.09375-9.890625-22.09375-22.089844zm0 0" fill="#293d7c"/><path d="m201.167969 0h109.667969c5.246093 0 9.5 4.253906 9.5 9.5v26.054688c0 5.246093-4.253907 9.5-9.5 9.5h-109.667969c-5.246094 0-9.5-4.253907-9.5-9.5v-26.054688c0-5.246094 4.253906-9.5 9.5-9.5zm0 0" fill="#293d7c"/><path d="m251.667969 35.554688v-26.054688c0-5.246094 4.253906-9.5 9.5-9.5h-60c-5.246094 0-9.5 4.253906-9.5 9.5v26.054688c0 5.246093 4.253906 9.5 9.5 9.5h60c-5.246094 0-9.5-4.253907-9.5-9.5zm0 0" fill="#1a2b63"/><path d="m173.09375 22.527344h165.8125c12.199219 0 22.09375 9.894531 22.09375 22.09375 0 12.203125-9.894531 22.09375-22.09375 22.09375h-165.8125c-12.203125 0-22.09375-9.890625-22.09375-22.09375 0-12.199219 9.890625-22.09375 22.09375-22.09375zm0 0" fill="#445ea0"/><path d="m211 44.621094c0-12.199219 9.890625-22.09375 22.09375-22.09375h-60c-12.203125 0-22.09375 9.894531-22.09375 22.09375 0 12.203125 9.890625 22.09375 22.09375 22.09375h60c-12.203125 0-22.09375-9.890625-22.09375-22.09375zm0 0" fill="#2e4c89"/></svg>