<svg height="512pt" viewBox="0 0 512 512" width="512pt" xmlns="http://www.w3.org/2000/svg"><path d="m512 256c0 141.386719-114.613281 256-256 256s-256-114.613281-256-256 114.613281-256 256-256 256 114.613281 256 256zm0 0" fill="#1a2b63"/><path d="m435.726562 348.203125h-118.46875c-9.726562 0-17.609374-7.882813-17.609374-17.609375 0-9.722656 7.882812-17.605469 17.609374-17.605469h118.46875c22.636719 0 41.054688-18.421875 41.054688-41.058593v-111.6875c0-.65625-.535156-1.191407-1.191406-1.191407h-158.332032c-9.726562 0-17.609374-7.882812-17.609374-17.609375 0-9.722656 7.882812-17.605468 17.609374-17.605468h158.332032c20.078125 0 36.410156 16.332031 36.410156 36.40625v111.6875c0 42.054687-34.21875 76.273437-76.273438 76.273437zm0 0" fill="#ffaf10"/><path d="m373.582031 434.679688h-278.707031c-6.722656 0-12.398438-4.984376-13.265625-11.652344l-44.761719-343.476563c-1.042968-8.011719 5.191406-15.113281 13.269532-15.113281h368.222656c8.078125 0 14.3125 7.101562 13.269531 15.113281l-44.757813 343.476563c-.871093 6.667968-6.546874 11.652344-13.269531 11.652344zm0 0" fill="#ffd00d"/><path d="m74.394531 367.667969 7.214844 55.359375c.867187 6.667968 6.546875 11.652344 13.265625 11.652344h278.707031c6.722657 0 12.398438-4.984376 13.269531-11.652344l7.214844-55.359375zm0 0" fill="#ffaf10"/><path d="m161.882812 423.027344-44.757812-343.476563c-1.042969-8.011719 5.191406-15.109375 13.269531-15.109375h-80.277343c-8.078126 0-14.3125 7.097656-13.269532 15.109375l44.761719 343.476563c.867187 6.667968 6.546875 11.652344 13.265625 11.652344h80.277344c-6.722656 0-12.398438-4.984376-13.269532-11.652344zm0 0" fill="#ffaf10"/><path d="m443.667969 421.5h-382.960938c15.171875 17.886719 32.746094 33.671875 52.242188 46.832031h286.101562c16.3125-11.011719 31.273438-23.863281 44.617188-38.238281zm0 0" fill="#5dc1d8"/><path d="m34.140625 383.800781c12.460937 21.589844 27.984375 41.183594 45.976563 58.199219h351.765624c17.992188-17.015625 33.515626-36.609375 45.976563-58.199219zm0 0" fill="#91e0e8"/><path d="m292.148438 64.441406h15v171.722656h-15zm0 0" fill="#fff"/><path d="m360.832031 236.164062c0 33.792969-27.394531 61.183594-61.183593 61.183594-33.789063 0-61.183594-27.390625-61.183594-61.183594 0-33.789062 27.394531-61.179687 61.183594-61.179687 33.789062 0 61.183593 27.390625 61.183593 61.179687zm0 0" fill="#fe3745"/><path d="m268.464844 236.164062c0-28.613281 19.648437-52.632812 46.183594-59.320312-4.800782-1.210938-9.824219-1.859375-15-1.859375-33.789063 0-61.183594 27.390625-61.183594 61.179687 0 33.792969 27.394531 61.183594 61.183594 61.183594 5.175781 0 10.199218-.648437 15-1.859375-26.539063-6.6875-46.183594-30.707031-46.183594-59.324219zm0 0" fill="#b7092b"/></svg>